<svg xmlns="http://www.w3.org/2000/svg" xmlns:xlink="http://www.w3.org/1999/xlink" width="100" zoomAndPan="magnify" viewBox="0 0 75 74.999997" height="100" preserveAspectRatio="xMidYMid meet" version="1.0"><defs><clipPath id="id1"><path d="M 22.425781 17 L 52 17 L 52 58.382812 L 22.425781 58.382812 Z M 22.425781 17 " clip-rule="nonzero"/></clipPath></defs><g clip-path="url(#id1)"><path fill="rgb(0%, 0%, 0%)" d="M 34.425781 17.148438 C 33.265625 17.183594 32.144531 17.785156 31.507812 18.839844 L 31.28125 19.214844 C 30.960938 19.746094 30.394531 20.070312 29.773438 20.082031 L 29.335938 20.09375 C 27.457031 20.132812 25.929688 21.660156 25.890625 23.535156 L 25.882812 23.972656 C 25.867188 24.589844 25.539062 25.160156 25.011719 25.480469 L 24.636719 25.707031 C 23.03125 26.675781 22.46875 28.765625 23.375 30.40625 L 23.585938 30.792969 C 23.886719 31.335938 23.886719 31.988281 23.585938 32.53125 L 23.375 32.914062 C 22.472656 34.558594 23.03125 36.644531 24.636719 37.617188 L 25.011719 37.839844 C 25.542969 38.164062 25.871094 38.730469 25.882812 39.347656 L 25.882812 39.351562 L 25.894531 39.789062 C 25.925781 41.304688 26.9375 42.578125 28.3125 43.035156 L 23.871094 52.652344 C 23.8125 52.78125 23.785156 52.921875 23.796875 53.066406 C 23.804688 53.210938 23.851562 53.347656 23.929688 53.46875 C 24.007812 53.59375 24.109375 53.6875 24.238281 53.757812 C 24.367188 53.828125 24.503906 53.863281 24.648438 53.863281 L 30.222656 53.863281 L 33.382812 57.8125 C 33.476562 57.929688 33.59375 58.015625 33.730469 58.070312 C 33.871094 58.128906 34.015625 58.144531 34.164062 58.125 C 34.3125 58.105469 34.445312 58.050781 34.566406 57.960938 C 34.683594 57.871094 34.773438 57.757812 34.832031 57.621094 L 37.496094 51.542969 L 40.160156 57.621094 C 40.21875 57.757812 40.308594 57.871094 40.429688 57.960938 C 40.546875 58.050781 40.683594 58.105469 40.832031 58.125 C 40.980469 58.144531 41.121094 58.128906 41.261719 58.070312 C 41.398438 58.015625 41.515625 57.929688 41.609375 57.8125 L 44.769531 53.863281 L 50.34375 53.863281 C 50.488281 53.863281 50.625 53.828125 50.753906 53.757812 C 50.882812 53.6875 50.984375 53.59375 51.0625 53.46875 C 51.144531 53.347656 51.1875 53.210938 51.195312 53.066406 C 51.207031 52.921875 51.179688 52.78125 51.121094 52.652344 L 46.671875 43.023438 C 48.027344 42.550781 49.015625 41.289062 49.046875 39.789062 L 49.046875 39.785156 L 49.058594 39.351562 L 49.058594 39.347656 C 49.070312 38.730469 49.398438 38.160156 49.929688 37.839844 L 50.304688 37.613281 C 51.910156 36.644531 52.46875 34.558594 51.566406 32.914062 L 51.5625 32.914062 L 51.351562 32.527344 C 51.054688 31.984375 51.054688 31.332031 51.351562 30.789062 L 51.5625 30.40625 C 52.46875 28.761719 51.910156 26.679688 50.304688 25.707031 L 50.300781 25.703125 L 49.929688 25.480469 C 49.398438 25.15625 49.070312 24.589844 49.054688 23.972656 L 49.054688 23.96875 L 49.046875 23.535156 L 49.046875 23.53125 C 49.007812 21.65625 47.480469 20.128906 45.601562 20.09375 L 45.164062 20.082031 C 44.546875 20.070312 43.976562 19.742188 43.65625 19.210938 L 43.429688 18.839844 C 42.457031 17.234375 40.367188 16.671875 38.722656 17.578125 L 38.339844 17.789062 C 37.796875 18.089844 37.140625 18.089844 36.597656 17.789062 L 36.214844 17.578125 C 35.804688 17.351562 35.363281 17.21875 34.921875 17.167969 C 34.757812 17.148438 34.589844 17.144531 34.425781 17.148438 Z M 34.382812 18.851562 C 34.71875 18.828125 35.070312 18.898438 35.390625 19.074219 L 35.773438 19.285156 C 36.828125 19.867188 38.109375 19.867188 39.164062 19.285156 L 39.546875 19.074219 C 40.40625 18.605469 41.460938 18.886719 41.96875 19.722656 L 42.195312 20.09375 C 42.816406 21.125 43.925781 21.765625 45.128906 21.789062 L 45.566406 21.800781 C 46.546875 21.820312 47.320312 22.589844 47.339844 23.566406 L 47.339844 23.570312 L 47.347656 24.007812 C 47.371094 25.210938 48.015625 26.316406 49.042969 26.941406 L 49.417969 27.167969 C 50.253906 27.671875 50.535156 28.726562 50.066406 29.582031 L 49.855469 29.964844 C 49.273438 31.019531 49.273438 32.300781 49.855469 33.355469 L 49.855469 33.359375 L 50.066406 33.738281 C 50.539062 34.59375 50.253906 35.648438 49.417969 36.152344 L 49.042969 36.378906 C 48.015625 37.003906 47.375 38.113281 47.347656 39.3125 L 47.339844 39.75 L 47.339844 39.753906 C 47.320312 40.730469 46.546875 41.5 45.570312 41.519531 L 45.128906 41.53125 C 43.925781 41.554688 42.820312 42.195312 42.195312 43.222656 L 42.195312 43.226562 L 41.96875 43.597656 C 41.460938 44.4375 40.40625 44.71875 39.550781 44.246094 L 39.167969 44.035156 C 38.113281 43.457031 36.828125 43.457031 35.773438 44.035156 L 35.390625 44.246094 C 34.535156 44.71875 33.480469 44.433594 32.972656 43.597656 L 32.746094 43.226562 C 32.121094 42.195312 31.011719 41.554688 29.8125 41.53125 L 29.808594 41.53125 L 29.371094 41.519531 C 28.394531 41.5 27.621094 40.730469 27.601562 39.753906 L 27.601562 39.75 L 27.59375 39.3125 C 27.566406 38.113281 26.925781 37.003906 25.894531 36.378906 L 25.523438 36.152344 C 24.683594 35.648438 24.402344 34.59375 24.871094 33.738281 L 25.082031 33.355469 C 25.664062 32.300781 25.664062 31.019531 25.082031 29.964844 L 24.871094 29.585938 C 24.402344 28.726562 24.683594 27.671875 25.519531 27.167969 L 25.894531 26.941406 C 26.921875 26.316406 27.566406 25.210938 27.589844 24.007812 L 27.601562 23.570312 C 27.621094 22.589844 28.390625 21.820312 29.371094 21.800781 L 29.808594 21.792969 C 31.011719 21.765625 32.121094 21.125 32.746094 20.097656 L 32.972656 19.722656 C 33.226562 19.304688 33.613281 19.023438 34.050781 18.90625 C 34.15625 18.878906 34.269531 18.859375 34.382812 18.851562 Z M 43.695312 25.757812 L 36.652344 36.753906 L 30.992188 31.664062 L 29.847656 32.9375 L 37.003906 39.371094 L 45.132812 26.675781 Z M 44.90625 43.277344 L 49.007812 52.15625 L 44.359375 52.15625 C 44.085938 52.15625 43.863281 52.261719 43.691406 52.476562 L 41.15625 55.640625 L 38.429688 49.40625 L 39.867188 46.121094 C 41.242188 46.335938 42.675781 45.734375 43.429688 44.484375 L 43.65625 44.109375 C 43.933594 43.65625 44.390625 43.363281 44.90625 43.277344 Z M 30.082031 43.285156 C 30.578125 43.382812 31.015625 43.671875 31.28125 44.109375 L 31.511719 44.484375 C 32.480469 46.085938 34.570312 46.648438 36.214844 45.742188 L 36.601562 45.53125 C 37.121094 45.246094 37.746094 45.242188 38.273438 45.503906 L 33.835938 55.640625 L 31.300781 52.476562 C 31.128906 52.261719 30.90625 52.15625 30.632812 52.15625 L 25.988281 52.15625 Z M 30.082031 43.285156 " fill-opacity="1" fill-rule="nonzero"/></g></svg>