<svg xmlns="http://www.w3.org/2000/svg" xmlns:xlink="http://www.w3.org/1999/xlink" width="100" zoomAndPan="magnify" viewBox="0 0 75 74.999997" height="100" preserveAspectRatio="xMidYMid meet" version="1.0"><defs><clipPath id="id1"><path d="M 18.601562 15 L 56.101562 15 L 56.101562 60 L 18.601562 60 Z M 18.601562 15 " clip-rule="nonzero"/></clipPath></defs><g clip-path="url(#id1)"><path fill="rgb(0%, 0%, 0%)" d="M 36.433594 15 C 33.027344 15 30.332031 16.367188 28.539062 18.394531 C 26.746094 20.421875 25.828125 23.085938 25.828125 25.707031 C 25.828125 28.0625 26.34375 30.753906 26.496094 31.519531 C 26.089844 31.886719 25.828125 32.410156 25.828125 33 C 25.828125 33.472656 25.96875 33.875 26.082031 34.269531 C 26.140625 34.464844 26.195312 34.652344 26.230469 34.789062 C 26.269531 34.929688 26.277344 35.066406 26.277344 34.960938 C 26.277344 35.945312 27.097656 36.71875 28.066406 36.75 C 28.199219 39.5625 29.542969 42.046875 31.589844 43.683594 L 31.589844 46.390625 C 30.550781 46.707031 28.058594 47.519531 25.519531 48.726562 C 23.863281 49.515625 22.199219 50.464844 20.902344 51.589844 C 19.605469 52.714844 18.625 54.0625 18.625 55.644531 L 18.625 60 L 56.074219 60 L 56.074219 55.644531 C 56.074219 54.0625 55.09375 52.714844 53.796875 51.589844 C 52.5 50.464844 50.835938 49.515625 49.179688 48.726562 C 46.640625 47.519531 44.148438 46.707031 43.113281 46.390625 L 43.113281 43.6875 C 45.15625 42.050781 46.5 39.566406 46.632812 36.75 C 47.601562 36.71875 48.421875 35.945312 48.421875 34.960938 C 48.421875 35.066406 48.429688 34.929688 48.46875 34.789062 C 48.503906 34.652344 48.5625 34.464844 48.617188 34.269531 C 48.730469 33.875 48.871094 33.472656 48.871094 33 C 48.871094 32.40625 48.605469 31.878906 48.195312 31.507812 C 48.328125 30.742188 48.871094 27.464844 48.871094 25.160156 C 48.871094 22.554688 47.90625 20.683594 46.601562 19.523438 C 45.425781 18.488281 44.046875 18.070312 42.828125 17.984375 C 42.628906 17.667969 42.28125 17.175781 41.558594 16.605469 C 40.519531 15.789062 38.855469 15 36.433594 15 Z M 36.433594 16.453125 C 38.546875 16.453125 39.863281 17.113281 40.667969 17.75 C 41.480469 18.386719 41.746094 18.949219 41.746094 18.949219 L 41.945312 19.355469 L 42.390625 19.355469 C 43.351562 19.355469 44.640625 19.722656 45.644531 20.617188 C 46.652344 21.507812 47.433594 22.90625 47.433594 25.160156 C 47.433594 27.1875 46.953125 30.140625 46.8125 30.96875 C 46.8125 30.96875 46.808594 30.96875 46.800781 30.96875 C 46.742188 30.96875 46.75 30.980469 46.710938 30.988281 L 46.710938 28.789062 C 46.710938 26.308594 45.707031 24.636719 44.691406 23.648438 C 43.679688 22.65625 42.617188 22.292969 42.617188 22.292969 L 42.207031 22.15625 L 41.894531 22.460938 C 41.894531 22.460938 41.441406 22.90625 40.347656 23.410156 C 39.25 23.917969 37.558594 24.433594 35.191406 24.433594 C 33.890625 24.433594 32.183594 24.898438 30.703125 25.941406 C 29.226562 26.980469 27.996094 28.683594 27.992188 30.992188 C 27.949219 30.984375 27.960938 30.96875 27.898438 30.96875 C 27.886719 30.96875 27.871094 30.96875 27.859375 30.96875 C 27.660156 29.910156 27.265625 27.566406 27.265625 25.707031 C 27.265625 23.429688 28.074219 21.097656 29.613281 19.363281 C 31.152344 17.625 33.402344 16.453125 36.433594 16.453125 Z M 42.390625 23.824219 C 42.566406 23.890625 43.019531 24.035156 43.691406 24.6875 C 44.480469 25.457031 45.273438 26.6875 45.273438 28.789062 L 45.273438 33.367188 L 46.355469 32.726562 C 46.539062 32.617188 46.710938 32.519531 46.832031 32.460938 C 46.847656 32.449219 46.851562 32.449219 46.867188 32.441406 C 47.195312 32.476562 47.433594 32.707031 47.433594 32.996094 L 47.433594 33 C 47.433594 33.054688 47.34375 33.480469 47.234375 33.859375 C 47.179688 34.046875 47.125 34.238281 47.074219 34.410156 C 47.03125 34.582031 46.980469 34.703125 46.980469 34.960938 C 46.980469 35.152344 46.824219 35.324219 46.578125 35.324219 L 45.273438 35.324219 L 45.273438 36.316406 C 45.273438 40.25 42.457031 43.503906 38.75 44.167969 L 38.542969 44.203125 L 38.386719 44.347656 C 38.105469 44.605469 37.753906 44.757812 37.351562 44.757812 C 36.949219 44.757812 36.59375 44.605469 36.3125 44.347656 L 36.15625 44.203125 L 35.953125 44.167969 C 32.242188 43.503906 29.429688 40.25 29.429688 36.316406 L 29.429688 35.324219 L 28.121094 35.324219 C 27.875 35.324219 27.71875 35.152344 27.71875 34.960938 C 27.71875 34.703125 27.667969 34.582031 27.621094 34.410156 C 27.574219 34.238281 27.519531 34.046875 27.460938 33.859375 C 27.351562 33.480469 27.265625 33.054688 27.265625 33 C 27.265625 32.707031 27.503906 32.476562 27.832031 32.441406 C 27.847656 32.449219 27.851562 32.449219 27.867188 32.460938 C 27.988281 32.519531 28.160156 32.617188 28.34375 32.726562 L 29.429688 33.367188 L 29.429688 31.003906 C 29.429688 29.195312 30.324219 27.980469 31.527344 27.132812 C 32.730469 26.285156 34.261719 25.886719 35.191406 25.886719 C 37.769531 25.886719 39.675781 25.316406 40.945312 24.734375 C 41.886719 24.300781 42.136719 24.03125 42.390625 23.824219 Z M 33.390625 32.417969 C 32.792969 32.417969 32.308594 32.90625 32.308594 33.507812 C 32.308594 34.109375 32.792969 34.597656 33.390625 34.597656 C 33.984375 34.597656 34.46875 34.109375 34.46875 33.507812 C 34.46875 32.90625 33.984375 32.417969 33.390625 32.417969 Z M 41.3125 32.417969 C 40.714844 32.417969 40.230469 32.90625 40.230469 33.507812 C 40.230469 34.109375 40.714844 34.597656 41.3125 34.597656 C 41.90625 34.597656 42.390625 34.109375 42.390625 33.507812 C 42.390625 32.90625 41.90625 32.417969 41.3125 32.417969 Z M 33.027344 44.628906 C 33.796875 45.035156 34.625 45.347656 35.507812 45.527344 C 36.015625 45.933594 36.648438 46.210938 37.351562 46.210938 C 38.050781 46.210938 38.679688 45.933594 39.183594 45.527344 C 40.066406 45.351562 40.898438 45.042969 41.671875 44.632812 L 41.671875 47.660156 C 41.671875 47.921875 41.46875 48.398438 41.050781 48.910156 C 40.628906 49.425781 40.03125 49.964844 39.425781 50.449219 C 38.375 51.277344 37.578125 51.734375 37.316406 51.890625 C 37.054688 51.773438 36.273438 51.4375 35.25 50.699219 C 34.0625 49.84375 33.027344 48.691406 33.027344 47.660156 Z M 31.609375 47.910156 C 31.742188 49.65625 33.136719 50.964844 34.410156 51.878906 C 35.742188 52.839844 37.066406 53.410156 37.066406 53.410156 L 37.394531 53.550781 L 37.707031 53.375 C 37.707031 53.375 39.003906 52.625 40.316406 51.589844 C 40.96875 51.070312 41.632812 50.476562 42.15625 49.835938 C 42.628906 49.257812 43.019531 48.632812 43.09375 47.910156 C 44.246094 48.277344 46.378906 49 48.566406 50.042969 C 50.148438 50.796875 51.726562 51.707031 52.859375 52.691406 C 53.992188 53.675781 54.632812 54.6875 54.632812 55.644531 L 54.632812 58.546875 L 20.066406 58.546875 L 20.066406 55.644531 C 20.066406 54.6875 20.707031 53.675781 21.839844 52.691406 C 22.972656 51.707031 24.550781 50.796875 26.132812 50.042969 C 28.328125 49 30.460938 48.277344 31.609375 47.910156 Z M 22.945312 55.644531 C 22.550781 55.644531 22.226562 55.972656 22.226562 56.371094 C 22.226562 56.769531 22.550781 57.097656 22.945312 57.097656 C 23.34375 57.097656 23.667969 56.769531 23.667969 56.371094 C 23.667969 55.972656 23.34375 55.644531 22.945312 55.644531 Z M 25.828125 55.644531 C 25.429688 55.644531 25.105469 55.972656 25.105469 56.371094 C 25.105469 56.769531 25.429688 57.097656 25.828125 57.097656 C 26.222656 57.097656 26.546875 56.769531 26.546875 56.371094 C 26.546875 55.972656 26.222656 55.644531 25.828125 55.644531 Z M 28.707031 55.644531 C 28.3125 55.644531 27.988281 55.972656 27.988281 56.371094 C 27.988281 56.769531 28.3125 57.097656 28.707031 57.097656 C 29.105469 57.097656 29.429688 56.769531 29.429688 56.371094 C 29.429688 55.972656 29.105469 55.644531 28.707031 55.644531 Z M 31.589844 55.644531 C 31.191406 55.644531 30.867188 55.972656 30.867188 56.371094 C 30.867188 56.769531 31.191406 57.097656 31.589844 57.097656 C 31.984375 57.097656 32.308594 56.769531 32.308594 56.371094 C 32.308594 55.972656 31.984375 55.644531 31.589844 55.644531 Z M 34.46875 55.644531 C 34.074219 55.644531 33.75 55.972656 33.75 56.371094 C 33.75 56.769531 34.074219 57.097656 34.46875 57.097656 C 34.867188 57.097656 35.191406 56.769531 35.191406 56.371094 C 35.191406 55.972656 34.867188 55.644531 34.46875 55.644531 Z M 37.351562 55.644531 C 36.953125 55.644531 36.628906 55.972656 36.628906 56.371094 C 36.628906 56.769531 36.953125 57.097656 37.351562 57.097656 C 37.746094 57.097656 38.070312 56.769531 38.070312 56.371094 C 38.070312 55.972656 37.746094 55.644531 37.351562 55.644531 Z M 40.230469 55.644531 C 39.835938 55.644531 39.511719 55.972656 39.511719 56.371094 C 39.511719 56.769531 39.835938 57.097656 40.230469 57.097656 C 40.628906 57.097656 40.949219 56.769531 40.949219 56.371094 C 40.949219 55.972656 40.628906 55.644531 40.230469 55.644531 Z M 43.113281 55.644531 C 42.714844 55.644531 42.390625 55.972656 42.390625 56.371094 C 42.390625 56.769531 42.714844 57.097656 43.113281 57.097656 C 43.507812 57.097656 43.832031 56.769531 43.832031 56.371094 C 43.832031 55.972656 43.507812 55.644531 43.113281 55.644531 Z M 45.992188 55.644531 C 45.59375 55.644531 45.273438 55.972656 45.273438 56.371094 C 45.273438 56.769531 45.59375 57.097656 45.992188 57.097656 C 46.390625 57.097656 46.710938 56.769531 46.710938 56.371094 C 46.710938 55.972656 46.390625 55.644531 45.992188 55.644531 Z M 48.871094 55.644531 C 48.476562 55.644531 48.152344 55.972656 48.152344 56.371094 C 48.152344 56.769531 48.476562 57.097656 48.871094 57.097656 C 49.269531 57.097656 49.59375 56.769531 49.59375 56.371094 C 49.59375 55.972656 49.269531 55.644531 48.871094 55.644531 Z M 51.753906 55.644531 C 51.355469 55.644531 51.035156 55.972656 51.035156 56.371094 C 51.035156 56.769531 51.355469 57.097656 51.753906 57.097656 C 52.148438 57.097656 52.472656 56.769531 52.472656 56.371094 C 52.472656 55.972656 52.148438 55.644531 51.753906 55.644531 Z M 51.753906 55.644531 " fill-opacity="1" fill-rule="nonzero"/></g></svg>