<svg xmlns="http://www.w3.org/2000/svg" xmlns:xlink="http://www.w3.org/1999/xlink" width="100" zoomAndPan="magnify" viewBox="0 0 75 74.999997" height="100" preserveAspectRatio="xMidYMid meet" version="1.0"><defs><clipPath id="id1"><path d="M 19 18 L 56.402344 18 L 56.402344 57.515625 L 19 57.515625 Z M 19 18 " clip-rule="nonzero"/></clipPath></defs><g clip-path="url(#id1)"><path fill="rgb(13.729858%, 12.159729%, 12.548828%)" d="M 28.570312 32.589844 C 28.847656 32.421875 28.964844 32.027344 28.945312 31.464844 C 28.972656 31.480469 28.996094 31.496094 29.023438 31.519531 C 29.78125 32.09375 29.929688 33.175781 29.351562 33.933594 C 28.773438 34.695312 27.691406 34.839844 26.929688 34.261719 C 26.175781 33.683594 26.027344 32.605469 26.605469 31.847656 L 26.609375 31.839844 C 27.457031 32.542969 28.15625 32.839844 28.570312 32.589844 Z M 28.332031 31.203125 C 28.308594 31.445312 28.234375 31.613281 28.101562 31.699219 C 27.882812 31.832031 27.53125 31.71875 27.09375 31.410156 C 27.464844 31.1875 27.910156 31.113281 28.332031 31.203125 Z M 46.214844 55.21875 C 44.632812 57.042969 42.949219 55.535156 41.554688 54.476562 C 37.34375 51.269531 33.128906 48.066406 28.914062 44.859375 C 28.5 44.542969 28.082031 44.222656 27.664062 43.90625 C 26.914062 43.335938 26.613281 42.585938 26.414062 41.714844 C 25.898438 39.480469 25.378906 37.246094 24.867188 35.007812 C 24.542969 33.617188 24.753906 32.042969 25.660156 30.941406 C 25.773438 31.0625 25.890625 31.183594 26.003906 31.292969 C 25.25 32.242188 24.945312 33.535156 25.273438 34.953125 C 25.789062 37.1875 26.308594 39.425781 26.824219 41.65625 C 27.199219 43.28125 28.472656 44 29.714844 44.949219 C 31.898438 46.609375 34.085938 48.277344 36.273438 49.9375 C 38.285156 51.46875 40.300781 53 42.3125 54.53125 C 42.652344 54.792969 42.984375 55.078125 43.339844 55.3125 C 44.730469 56.242188 45.679688 55.234375 46.457031 54.214844 C 48.078125 52.089844 49.699219 49.964844 51.316406 47.839844 C 52.035156 46.898438 52.75 45.957031 53.464844 45.015625 C 54.242188 44 54.960938 42.816406 53.695312 41.71875 C 50.953125 39.632812 48.207031 37.546875 45.464844 35.457031 C 43.699219 34.117188 41.9375 32.773438 40.171875 31.429688 C 39.140625 30.648438 38.046875 29.535156 36.707031 29.417969 C 35.070312 29.492188 33.429688 29.5625 31.792969 29.632812 C 30.914062 29.671875 30.03125 29.691406 29.152344 29.75 C 28.042969 29.824219 27.109375 30.226562 26.421875 30.851562 C 26.3125 30.746094 26.195312 30.632812 26.082031 30.507812 C 26.183594 30.417969 26.296875 30.328125 26.414062 30.25 C 27.5 29.503906 28.664062 29.359375 29.933594 29.304688 C 32.191406 29.207031 34.445312 29.105469 36.703125 29.007812 C 36.722656 29.007812 36.738281 29.011719 36.753906 29.015625 L 36.753906 29.007812 C 38.140625 29.128906 39.164062 30.148438 40.226562 30.953125 C 42.007812 32.308594 43.789062 33.664062 45.570312 35.019531 C 48.363281 37.144531 51.152344 39.269531 53.945312 41.394531 C 54.863281 42.1875 55.136719 43.507812 54.367188 44.515625 C 54.113281 44.851562 53.859375 45.183594 53.601562 45.519531 C 52.296875 47.230469 50.992188 48.945312 49.6875 50.660156 C 48.539062 52.167969 47.453125 53.78125 46.214844 55.21875 Z M 22.949219 26.28125 C 20.863281 22.832031 19.78125 19.667969 20.539062 19.210938 C 21.296875 18.753906 23.601562 21.179688 25.691406 24.625 C 26.570312 26.082031 27.269531 27.484375 27.730469 28.65625 C 26.855469 28.789062 26.023438 29.132812 25.351562 29.695312 C 24.585938 28.777344 23.753906 27.605469 22.949219 26.28125 Z M 55.203125 41.652344 L 38.417969 28.882812 L 38.40625 28.871094 C 37.871094 28.464844 37.246094 28.261719 36.621094 28.234375 L 36.625 28.234375 L 28.355469 28.597656 C 28.3125 28.597656 28.269531 28.601562 28.226562 28.605469 C 27.738281 27.332031 27.015625 25.871094 26.109375 24.371094 C 23.734375 20.449219 20.980469 17.765625 19.964844 18.382812 C 18.949219 18.996094 20.050781 22.675781 22.425781 26.597656 C 23.242188 27.941406 24.097656 29.140625 24.914062 30.113281 C 24.835938 30.199219 24.757812 30.289062 24.6875 30.382812 C 23.574219 31.84375 23.773438 33.070312 23.949219 34.496094 L 25.785156 42.457031 C 25.976562 43.050781 26.34375 43.597656 26.878906 44.003906 L 26.882812 44.007812 L 26.890625 44.011719 L 43.671875 56.78125 C 44.640625 57.519531 46.015625 57.332031 46.753906 56.367188 L 55.617188 44.730469 C 56.351562 43.765625 56.167969 42.386719 55.203125 41.652344 " fill-opacity="1" fill-rule="nonzero"/></g></svg>