<svg xmlns="http://www.w3.org/2000/svg" xmlns:xlink="http://www.w3.org/1999/xlink" width="100" zoomAndPan="magnify" viewBox="0 0 75 74.999997" height="100" preserveAspectRatio="xMidYMid meet" version="1.0"><defs><clipPath id="id1"><path d="M 18.703125 18.703125 L 56.203125 18.703125 L 56.203125 56.203125 L 18.703125 56.203125 Z M 18.703125 18.703125 " clip-rule="nonzero"/></clipPath></defs><path fill="rgb(6.269836%, 5.879211%, 5.099487%)" d="M 45.289062 30.683594 C 45.226562 30.464844 45.082031 30.289062 44.871094 30.179688 C 44.917969 29.6875 44.851562 29.085938 44.738281 28.589844 C 44.636719 28.183594 44.484375 27.730469 44.25 27.253906 C 44.003906 26.785156 43.699219 26.285156 43.273438 25.828125 C 42.867188 25.351562 42.34375 24.917969 41.75 24.535156 C 36.597656 21.269531 29.484375 25.132812 30.035156 30.179688 C 29.828125 30.289062 29.683594 30.46875 29.625 30.683594 C 28.402344 30.707031 27.421875 31.613281 27.421875 32.730469 C 27.421875 33.851562 28.402344 34.757812 29.625 34.78125 C 29.71875 35.132812 30.054688 35.402344 30.46875 35.402344 C 30.964844 35.402344 31.363281 35.035156 31.363281 34.585938 L 31.363281 30.878906 C 31.363281 30.621094 31.226562 30.402344 31.023438 30.253906 C 31.246094 28.976562 31.910156 27.628906 32.839844 26.792969 C 34.203125 25.464844 36.574219 24.695312 39.175781 25.273438 C 40.175781 25.574219 41.164062 26.074219 41.984375 26.878906 C 42.898438 27.699219 43.640625 28.933594 43.882812 30.253906 C 43.355469 30.644531 43.546875 30.984375 43.546875 34.585938 C 43.546875 34.867188 43.710938 35.105469 43.949219 35.25 L 43.949219 35.5625 C 43.949219 35.761719 43.894531 35.957031 43.785156 36.125 C 42.621094 37.941406 42.542969 38.125 40.785156 38.6875 C 40.230469 38.867188 39.605469 38.941406 38.972656 39.097656 C 38.394531 38.519531 37.363281 38.898438 37.363281 39.671875 C 37.363281 40.640625 38.882812 40.863281 39.175781 39.890625 C 39.601562 39.789062 40.042969 39.726562 40.457031 39.601562 C 42.726562 38.910156 43.46875 38.5 44.667969 36.207031 C 44.78125 35.992188 44.84375 35.75 44.84375 35.503906 L 44.84375 35.300781 C 45.066406 35.195312 45.226562 35.007812 45.289062 34.78125 C 46.503906 34.757812 47.484375 33.851562 47.484375 32.730469 C 47.484375 31.613281 46.503906 30.707031 45.289062 30.683594 " fill-opacity="1" fill-rule="nonzero"/><path fill="rgb(6.269836%, 5.879211%, 5.099487%)" d="M 37.457031 43.929688 C 38.1875 42.90625 38.820312 42.027344 39.441406 41.140625 C 40.171875 40.101562 40.90625 39.765625 42.054688 40.152344 C 43.519531 40.648438 44.96875 41.199219 46.382812 41.8125 C 47.597656 42.34375 48.28125 43.289062 48.207031 44.691406 C 48.167969 45.382812 48.207031 46.078125 48.195312 46.769531 C 48.171875 48.675781 47.304688 49.5625 45.414062 49.570312 C 42.976562 49.585938 40.539062 49.574219 38.101562 49.574219 C 35.269531 49.574219 32.4375 49.582031 29.601562 49.570312 C 27.578125 49.5625 26.722656 48.699219 26.710938 46.683594 C 26.707031 46.023438 26.746094 45.363281 26.703125 44.707031 C 26.613281 43.246094 27.367188 42.308594 28.605469 41.773438 C 30.023438 41.160156 31.480469 40.628906 32.945312 40.144531 C 34.195312 39.726562 34.582031 39.914062 35.355469 40.996094 C 36.019531 41.929688 36.691406 42.863281 37.457031 43.929688 " fill-opacity="1" fill-rule="nonzero"/><path fill="rgb(6.269836%, 5.879211%, 5.099487%)" d="M 42.621094 31.765625 C 42.488281 33.484375 41.945312 35.683594 40.140625 37.375 C 38.613281 38.808594 36.28125 38.84375 34.777344 37.375 C 32.691406 35.339844 32.035156 32.75 32.355469 29.957031 C 32.527344 28.496094 33.417969 27.34375 34.914062 26.855469 C 37.140625 26.125 39.292969 26.054688 41.253906 27.609375 C 42.398438 28.519531 42.660156 29.765625 42.621094 31.765625 " fill-opacity="1" fill-rule="nonzero"/><g clip-path="url(#id1)"><path fill="rgb(6.269836%, 5.879211%, 5.099487%)" d="M 37.453125 54.734375 C 27.910156 54.734375 20.171875 47 20.171875 37.453125 C 20.171875 27.910156 27.910156 20.171875 37.453125 20.171875 C 47 20.171875 54.734375 27.910156 54.734375 37.453125 C 54.734375 47 47 54.734375 37.453125 54.734375 Z M 37.453125 18.703125 C 27.097656 18.703125 18.703125 27.097656 18.703125 37.453125 C 18.703125 47.808594 27.097656 56.203125 37.453125 56.203125 C 47.808594 56.203125 56.203125 47.808594 56.203125 37.453125 C 56.203125 27.097656 47.808594 18.703125 37.453125 18.703125 " fill-opacity="1" fill-rule="nonzero"/></g></svg>