<svg xmlns="http://www.w3.org/2000/svg" xmlns:xlink="http://www.w3.org/1999/xlink" width="500" zoomAndPan="magnify" viewBox="0 0 375 374.999991" height="500" preserveAspectRatio="xMidYMid meet" version="1.0"><defs><g/></defs><rect x="-37.5" width="450" fill="rgb(0%, 0%, 0%)" y="-37.499999" height="449.999989" fill-opacity="1"/><rect x="-37.5" width="450" fill="rgb(100%, 100%, 100%)" y="-37.499999" height="449.999989" fill-opacity="1"/><rect x="-37.5" width="450" fill="rgb(0%, 0%, 0%)" y="-37.499999" height="449.999989" fill-opacity="1"/><g fill="rgb(100%, 100%, 100%)" fill-opacity="1"><g transform="translate(40.253908, 221.732856)"><g><path d="M 7.5 0 L 7.5 -70 L 13.796875 -70 L 13.796875 -37.703125 L 47.796875 -37.703125 L 47.796875 -70 L 54.09375 -70 L 54.09375 0 L 47.796875 0 L 47.796875 -31.703125 L 13.796875 -31.703125 L 13.796875 0 Z M 7.5 0 "/></g></g></g><g fill="rgb(100%, 100%, 100%)" fill-opacity="1"><g transform="translate(101.851534, 221.732856)"><g><path d="M 45.90625 0 L 8 0 L 8 -70 L 14.796875 -70 L 14.796875 -6 L 46.40625 -6 Z M 45.90625 0 "/></g></g></g><g fill="rgb(100%, 100%, 100%)" fill-opacity="1"><g transform="translate(152.749575, 221.732856)"><g><path d="M 24.296875 0 L 24.296875 -64 L 4.5 -64 L 5 -70 L 50.296875 -70 L 49.796875 -64 L 30.59375 -64 L 30.59375 0 Z M 24.296875 0 "/></g></g></g><g fill="rgb(100%, 100%, 100%)" fill-opacity="1"><g transform="translate(207.547465, 221.732856)"><g><path d="M 7.5 0 L 7.5 -70 L 13.796875 -70 L 13.796875 -37.703125 L 47.796875 -37.703125 L 47.796875 -70 L 54.09375 -70 L 54.09375 0 L 47.796875 0 L 47.796875 -31.703125 L 13.796875 -31.703125 L 13.796875 0 Z M 7.5 0 "/></g></g></g><g fill="rgb(100%, 100%, 100%)" fill-opacity="1"><g transform="translate(269.14509, 221.732856)"><g><path d="M 33.40625 -29.09375 L 54.09375 -70 L 61.09375 -70 L 36.59375 -23.5 L 36.59375 0 L 30.296875 0 L 30.296875 -23.59375 L 4.5 -70 L 11.796875 -70 Z M 33.40625 -29.09375 "/></g></g></g><path fill="rgb(0%, 0%, 0%)" d="M 0.0625 175.144531 L 374.9375 175.144531 L 374.9375 199.894531 L 0.0625 199.894531 L 0.0625 175.144531 " fill-opacity="1" fill-rule="nonzero"/><g fill="rgb(45.098877%, 45.098877%, 45.098877%)" fill-opacity="1"><g transform="translate(58.012563, 190.233888)"><g><path d="M 2.40625 -3.136719 L 0.832031 -5.703125 L -0.121094 -5.703125 L 2 -2.28125 L 2 0 L 2.816406 0 L 2.816406 -2.28125 L 4.960938 -5.703125 L 4 -5.703125 Z M 2.40625 -3.136719 "/></g></g></g><g fill="rgb(45.098877%, 45.098877%, 45.098877%)" fill-opacity="1"><g transform="translate(69.236632, 190.233888)"><g><path d="M 0.28125 -2.800781 C 0.28125 -1.183594 1.566406 0.105469 3.183594 0.105469 C 4.800781 0.105469 6.097656 -1.183594 6.097656 -2.800781 C 6.097656 -4.414062 4.800781 -5.710938 3.183594 -5.710938 C 1.566406 -5.710938 0.28125 -4.414062 0.28125 -2.800781 Z M 1.113281 -2.800781 C 1.113281 -3.953125 2.03125 -4.878906 3.183594 -4.878906 C 4.335938 -4.878906 5.265625 -3.953125 5.265625 -2.800781 C 5.265625 -1.648438 4.335938 -0.726562 3.183594 -0.726562 C 2.03125 -0.726562 1.113281 -1.648438 1.113281 -2.800781 Z M 1.113281 -2.800781 "/></g></g></g><g fill="rgb(45.098877%, 45.098877%, 45.098877%)" fill-opacity="1"><g transform="translate(82.068719, 190.233888)"><g><path d="M 2.6875 0.0546875 C 3.648438 0.0546875 4.753906 -0.535156 4.753906 -1.671875 L 4.753906 -5.65625 L 3.9375 -5.65625 L 3.9375 -1.679688 C 3.9375 -1.0625 3.273438 -0.753906 2.6875 -0.753906 C 2.097656 -0.753906 1.433594 -1.054688 1.433594 -1.671875 L 1.433594 -5.65625 L 0.617188 -5.65625 L 0.617188 -1.679688 C 0.617188 -0.535156 1.703125 0.0546875 2.6875 0.0546875 Z M 2.6875 0.0546875 "/></g></g></g><g fill="rgb(45.098877%, 45.098877%, 45.098877%)" fill-opacity="1"><g transform="translate(93.836797, 190.233888)"><g><path d="M 2.726562 -2.839844 L 1.785156 -2.839844 L 1.785156 -2.457031 L 3.824219 0 L 4.871094 0 L 3.105469 -2.105469 C 4.0625 -2.273438 4.550781 -3.023438 4.550781 -3.816406 C 4.550781 -4.703125 3.945312 -5.671875 2.726562 -5.671875 L 0.6875 -5.671875 L 0.6875 0 L 1.488281 0 L 1.488281 -4.855469 L 2.726562 -4.855469 C 3.40625 -4.855469 3.742188 -4.296875 3.742188 -3.816406 C 3.742188 -3.328125 3.40625 -2.839844 2.726562 -2.839844 Z M 2.726562 -2.839844 "/></g></g></g><g fill="rgb(45.098877%, 45.098877%, 45.098877%)" fill-opacity="1"><g transform="translate(105.004866, 190.233888)"><g/></g></g><g fill="rgb(45.098877%, 45.098877%, 45.098877%)" fill-opacity="1"><g transform="translate(113.396905, 190.233888)"><g><path d="M 0.28125 -2.800781 C 0.28125 -1.183594 1.566406 0.105469 3.183594 0.105469 C 4.800781 0.105469 6.097656 -1.183594 6.097656 -2.800781 C 6.097656 -4.414062 4.800781 -5.710938 3.183594 -5.710938 C 1.566406 -5.710938 0.28125 -4.414062 0.28125 -2.800781 Z M 1.113281 -2.800781 C 1.113281 -3.953125 2.03125 -4.878906 3.183594 -4.878906 C 4.335938 -4.878906 5.265625 -3.953125 5.265625 -2.800781 C 5.265625 -1.648438 4.335938 -0.726562 3.183594 -0.726562 C 2.03125 -0.726562 1.113281 -1.648438 1.113281 -2.800781 Z M 1.113281 -2.800781 "/></g></g></g><g fill="rgb(45.098877%, 45.098877%, 45.098877%)" fill-opacity="1"><g transform="translate(126.22899, 190.233888)"><g><path d="M 0.6875 -5.601562 L 0.6875 0 L 1.496094 0 L 1.496094 -3.910156 L 4.199219 0 L 4.839844 0 L 4.839844 -5.601562 L 4.039062 -5.601562 L 4.039062 -1.65625 L 1.3125 -5.601562 Z M 0.6875 -5.601562 "/></g></g></g><g fill="rgb(45.098877%, 45.098877%, 45.098877%)" fill-opacity="1"><g transform="translate(138.15706, 190.233888)"><g><path d="M 4.128906 -0.808594 L 1.496094 -0.808594 L 1.496094 -5.601562 L 0.6875 -5.601562 L 0.6875 0 L 4.128906 0 Z M 4.128906 -0.808594 "/></g></g></g><g fill="rgb(45.098877%, 45.098877%, 45.098877%)" fill-opacity="1"><g transform="translate(148.725126, 190.233888)"><g><path d="M 2.535156 -4.902344 L 3.574219 -4.902344 L 3.574219 -5.648438 L 0.6875 -5.648438 L 0.6875 -4.902344 L 1.726562 -4.902344 L 1.726562 -0.753906 L 0.6875 -0.753906 L 0.6875 0 L 3.574219 0 L 3.574219 -0.753906 L 2.535156 -0.753906 Z M 2.535156 -4.902344 "/></g></g></g><g fill="rgb(45.098877%, 45.098877%, 45.098877%)" fill-opacity="1"><g transform="translate(159.381194, 190.233888)"><g><path d="M 0.6875 -5.601562 L 0.6875 0 L 1.496094 0 L 1.496094 -3.910156 L 4.199219 0 L 4.839844 0 L 4.839844 -5.601562 L 4.039062 -5.601562 L 4.039062 -1.65625 L 1.3125 -5.601562 Z M 0.6875 -5.601562 "/></g></g></g><g fill="rgb(45.098877%, 45.098877%, 45.098877%)" fill-opacity="1"><g transform="translate(171.309269, 190.233888)"><g><path d="M 4.105469 -0.808594 L 1.503906 -0.808594 L 1.503906 -2.457031 L 4.039062 -2.457031 L 4.039062 -3.273438 L 1.503906 -3.273438 L 1.503906 -4.847656 L 4.097656 -4.847656 L 4.097656 -5.65625 L 0.6875 -5.65625 L 0.6875 0 L 4.105469 0 Z M 4.105469 -0.808594 "/></g></g></g><g fill="rgb(45.098877%, 45.098877%, 45.098877%)" fill-opacity="1"><g transform="translate(182.173336, 190.233888)"><g/></g></g><g fill="rgb(45.098877%, 45.098877%, 45.098877%)" fill-opacity="1"><g transform="translate(190.56538, 190.233888)"><g><path d="M 1.742188 -4.886719 L 1.742188 0 L 2.550781 0 L 2.550781 -4.886719 L 4.238281 -4.886719 L 4.238281 -5.65625 L 0.046875 -5.65625 L 0.046875 -4.886719 Z M 1.742188 -4.886719 "/></g></g></g><g fill="rgb(45.098877%, 45.098877%, 45.098877%)" fill-opacity="1"><g transform="translate(201.261447, 190.233888)"><g><path d="M 2.726562 -2.839844 L 1.785156 -2.839844 L 1.785156 -2.457031 L 3.824219 0 L 4.871094 0 L 3.105469 -2.105469 C 4.0625 -2.273438 4.550781 -3.023438 4.550781 -3.816406 C 4.550781 -4.703125 3.945312 -5.671875 2.726562 -5.671875 L 0.6875 -5.671875 L 0.6875 0 L 1.488281 0 L 1.488281 -4.855469 L 2.726562 -4.855469 C 3.40625 -4.855469 3.742188 -4.296875 3.742188 -3.816406 C 3.742188 -3.328125 3.40625 -2.839844 2.726562 -2.839844 Z M 2.726562 -2.839844 "/></g></g></g><g fill="rgb(45.098877%, 45.098877%, 45.098877%)" fill-opacity="1"><g transform="translate(212.42952, 190.233888)"><g><path d="M 1.382812 -1.414062 L 3.65625 -1.414062 L 4.191406 0 L 5.054688 0 L 2.808594 -5.671875 L 2.214844 -5.671875 L -0.03125 0 L 0.839844 0 Z M 3.359375 -2.175781 L 1.679688 -2.175781 L 2.519531 -4.382812 Z M 3.359375 -2.175781 "/></g></g></g><g fill="rgb(45.098877%, 45.098877%, 45.098877%)" fill-opacity="1"><g transform="translate(223.901591, 190.233888)"><g><path d="M 2.535156 -4.902344 L 3.574219 -4.902344 L 3.574219 -5.648438 L 0.6875 -5.648438 L 0.6875 -4.902344 L 1.726562 -4.902344 L 1.726562 -0.753906 L 0.6875 -0.753906 L 0.6875 0 L 3.574219 0 L 3.574219 -0.753906 L 2.535156 -0.753906 Z M 2.535156 -4.902344 "/></g></g></g><g fill="rgb(45.098877%, 45.098877%, 45.098877%)" fill-opacity="1"><g transform="translate(234.557649, 190.233888)"><g><path d="M 0.6875 -5.601562 L 0.6875 0 L 1.496094 0 L 1.496094 -3.910156 L 4.199219 0 L 4.839844 0 L 4.839844 -5.601562 L 4.039062 -5.601562 L 4.039062 -1.65625 L 1.3125 -5.601562 Z M 0.6875 -5.601562 "/></g></g></g><g fill="rgb(45.098877%, 45.098877%, 45.098877%)" fill-opacity="1"><g transform="translate(246.485724, 190.233888)"><g><path d="M 2.535156 -4.902344 L 3.574219 -4.902344 L 3.574219 -5.648438 L 0.6875 -5.648438 L 0.6875 -4.902344 L 1.726562 -4.902344 L 1.726562 -0.753906 L 0.6875 -0.753906 L 0.6875 0 L 3.574219 0 L 3.574219 -0.753906 L 2.535156 -0.753906 Z M 2.535156 -4.902344 "/></g></g></g><g fill="rgb(45.098877%, 45.098877%, 45.098877%)" fill-opacity="1"><g transform="translate(257.141782, 190.233888)"><g><path d="M 0.6875 -5.601562 L 0.6875 0 L 1.496094 0 L 1.496094 -3.910156 L 4.199219 0 L 4.839844 0 L 4.839844 -5.601562 L 4.039062 -5.601562 L 4.039062 -1.65625 L 1.3125 -5.601562 Z M 0.6875 -5.601562 "/></g></g></g><g fill="rgb(45.098877%, 45.098877%, 45.098877%)" fill-opacity="1"><g transform="translate(269.069857, 190.233888)"><g><path d="M 4.984375 -3.632812 L 5.863281 -3.632812 C 5.558594 -5.152344 4.238281 -5.6875 3.144531 -5.6875 C 1.566406 -5.6875 0.335938 -4.480469 0.335938 -2.792969 C 0.335938 -1.113281 1.542969 0.0976562 3.144531 0.0976562 C 4.183594 0.0976562 5.351562 -0.664062 5.742188 -1.753906 L 5.742188 -1.742188 C 5.824219 -1.9375 5.863281 -2.257812 5.902344 -2.734375 L 2.824219 -2.734375 L 2.824219 -1.910156 L 4.9375 -1.910156 C 4.601562 -1.078125 3.847656 -0.695312 3.144531 -0.695312 C 2.023438 -0.695312 1.160156 -1.585938 1.160156 -2.792969 C 1.160156 -3.992188 2.023438 -4.863281 3.144531 -4.863281 C 3.871094 -4.863281 4.753906 -4.550781 4.984375 -3.632812 Z M 4.984375 -3.632812 "/></g></g></g><g fill="rgb(45.098877%, 45.098877%, 45.098877%)" fill-opacity="1"><g transform="translate(281.797944, 190.233888)"><g/></g></g><g fill="rgb(45.098877%, 45.098877%, 45.098877%)" fill-opacity="1"><g transform="translate(290.189977, 190.233888)"><g><path d="M 2.734375 -5.601562 L 0.6875 -5.601562 L 0.6875 0 L 1.503906 0 L 1.503906 -1.863281 L 2.734375 -1.863281 C 3.945312 -1.863281 4.550781 -2.792969 4.550781 -3.726562 C 4.550781 -4.664062 3.945312 -5.601562 2.734375 -5.601562 Z M 2.734375 -2.664062 L 1.503906 -2.664062 L 1.503906 -4.785156 L 2.734375 -4.785156 C 3.414062 -4.785156 3.753906 -4.257812 3.753906 -3.71875 C 3.753906 -3.191406 3.414062 -2.664062 2.734375 -2.664062 Z M 2.734375 -2.664062 "/></g></g></g><g fill="rgb(45.098877%, 45.098877%, 45.098877%)" fill-opacity="1"><g transform="translate(301.342049, 190.233888)"><g><path d="M 1.382812 -1.414062 L 3.65625 -1.414062 L 4.191406 0 L 5.054688 0 L 2.808594 -5.671875 L 2.214844 -5.671875 L -0.03125 0 L 0.839844 0 Z M 3.359375 -2.175781 L 1.679688 -2.175781 L 2.519531 -4.382812 Z M 3.359375 -2.175781 "/></g></g></g><g fill="rgb(45.098877%, 45.098877%, 45.098877%)" fill-opacity="1"><g transform="translate(312.814109, 190.233888)"><g><path d="M 4.128906 -0.808594 L 1.496094 -0.808594 L 1.496094 -5.601562 L 0.6875 -5.601562 L 0.6875 0 L 4.128906 0 Z M 4.128906 -0.808594 "/></g></g></g></svg>